<svg width="45" height="45" viewBox="0 0 45 45" fill="none" xmlns="http://www.w3.org/2000/svg">
<path d="M24.375 16.875H34.6875L24.375 6.5625V16.875ZM11.25 3.75H26.25L37.5 15V37.5C37.5 38.4946 37.1049 39.4484 36.4016 40.1516C35.6984 40.8549 34.7446 41.25 33.75 41.25H11.25C10.2554 41.25 9.30161 40.8549 8.59835 40.1516C7.89509 39.4484 7.5 38.4946 7.5 37.5V7.5C7.5 6.50544 7.89509 5.55161 8.59835 4.84835C9.30161 4.14509 10.2554 3.75 11.25 3.75ZM20.4937 23.325C21.2625 25.0125 22.2375 26.4 23.3625 27.3563L24.1312 27.9562C22.5 28.2563 20.25 28.7812 17.8687 29.7L17.6625 29.775L18.6 27.825C19.4437 26.1938 20.0625 24.7125 20.4937 23.325ZM32.6437 30.4688C32.9812 30.1313 33.15 29.7 33.1687 29.2313C33.225 28.8563 33.1312 28.5 32.9437 28.2C32.4 27.3188 30.9937 26.9062 28.6687 26.9062L26.25 27.0375L24.6187 25.95C23.4375 24.975 22.3687 23.2687 21.6187 21.15L21.6937 20.8875C22.3125 18.3938 22.8937 15.375 21.6562 14.1375C21.5049 13.9905 21.3258 13.8751 21.1295 13.7978C20.9332 13.7206 20.7234 13.6831 20.5125 13.6875H20.0625C19.3687 13.6875 18.75 14.4187 18.5812 15.1312C17.8875 17.625 18.3 18.9938 18.9937 21.2625V21.2812C18.525 22.9313 17.925 24.8438 16.9688 26.775L15.1687 30.15L13.5 31.0687C11.25 32.475 10.1813 34.05 9.975 35.0438C9.9 35.4 9.9375 35.7188 10.0687 36.0562L10.125 36.15L11.025 36.7313L11.85 36.9375C13.3688 36.9375 15.0937 35.1562 17.4187 31.1812L17.7562 31.05C19.6875 30.4312 22.0875 30 25.3125 29.6438C27.2437 30.6 29.5125 31.0312 30.9375 31.0312C31.7625 31.0312 32.325 30.825 32.6437 30.4688ZM31.875 29.1375L32.0437 29.3438C32.025 29.5312 31.9687 29.55 31.875 29.5875H31.8L31.4437 29.625C30.5812 29.625 29.25 29.2687 27.8812 28.6688C28.05 28.4813 28.125 28.4812 28.3125 28.4812C30.9375 28.4812 31.6875 28.95 31.875 29.1375ZM14.6812 31.875C13.4625 34.1063 12.3562 35.3438 11.5125 35.625C11.6062 34.9125 12.45 33.675 13.7812 32.4562L14.6812 31.875ZM20.3438 18.9188C19.9125 17.2313 19.8937 15.8625 20.2125 15.075L20.3438 14.85L20.625 14.9437C20.9437 15.3937 20.9812 15.9937 20.7937 17.0062L20.7375 17.3062L20.4375 18.8438L20.3438 18.9188Z" fill="#EF5350"/>
</svg>
