<svg width="45" height="45" viewBox="0 0 45 45" fill="none" xmlns="http://www.w3.org/2000/svg">
<path d="M26.62 24.3281L23.8736 4.21875H23.6683C18.8736 4.2269 14.2772 6.13286 10.8837 9.52003C7.49022 12.9072 5.57568 17.5001 5.55859 22.2947V22.5L26.62 24.3281Z" fill="#ED6C47"/>
<path d="M24.0784 4.21875H23.873V22.5L33.0291 26.1563L42.1866 22.5V22.2947C42.1696 17.5003 40.2552 12.9077 36.862 9.52053C33.4688 6.1334 28.8728 4.22727 24.0784 4.21875Z" fill="#FF8F6B"/>
<path d="M42.1872 22.5V22.7011C42.1694 27.4964 40.2543 32.0897 36.8605 35.4774C33.4667 38.8652 28.87 40.772 24.0747 40.7812H23.6711C18.876 40.7713 14.2797 38.8642 10.8861 35.4766C7.49242 32.089 5.57716 27.4961 5.55859 22.7011V22.5H42.1872Z" fill="#D35230"/>
<path opacity="0.1" d="M24.7891 13.2033V32.7094C24.7865 33.0412 24.6862 33.365 24.5006 33.6401C24.315 33.9153 24.0524 34.1296 23.7456 34.2562C23.5449 34.3392 23.33 34.3827 23.1128 34.3842H9.88142C9.62461 34.0898 9.38018 33.7849 9.14877 33.4702C6.81666 30.3649 5.55668 26.586 5.55861 22.7025V22.3003C5.55377 18.7972 6.57929 15.37 8.50752 12.4453C8.70772 12.1313 8.92167 11.8264 9.14877 11.5312H23.1128C23.5558 11.5342 23.9798 11.7112 24.2934 12.024C24.607 12.3368 24.785 12.7604 24.7891 13.2033Z" fill="black"/>
<path opacity="0.2" d="M23.8736 14.1187V33.6248C23.8717 33.8411 23.8283 34.055 23.7456 34.2548C23.6188 34.5613 23.4044 34.8237 23.1292 35.009C22.8541 35.1943 22.5305 35.2945 22.1988 35.2969H10.7153C10.4256 35.0025 10.1477 34.6978 9.88142 34.3828C9.62461 34.0884 9.38018 33.7835 9.14877 33.4687C6.81665 30.3635 5.55668 26.5846 5.55861 22.7011V22.2989C5.55405 18.7963 6.57955 15.3696 8.50752 12.4453H22.1974C22.6405 12.4483 23.0648 12.6254 23.3784 12.9385C23.692 13.2516 23.8699 13.6756 23.8736 14.1187Z" fill="black"/>
<path opacity="0.2" d="M23.8736 14.1187V31.7967C23.8696 32.2396 23.6915 32.6632 23.3779 32.976C23.0643 33.2888 22.6403 33.4658 22.1974 33.4687H9.14877C6.81665 30.3635 5.55668 26.5846 5.55861 22.7011V22.2989C5.55405 18.7963 6.57955 15.3696 8.50752 12.4453H22.1974C22.6405 12.4483 23.0648 12.6254 23.3784 12.9385C23.692 13.2516 23.8699 13.6756 23.8736 14.1187Z" fill="black"/>
<path opacity="0.2" d="M22.9581 14.1187V31.7967C22.9541 32.2396 22.7761 32.6632 22.4624 32.976C22.1488 33.2888 21.7248 33.4658 21.2819 33.4687H9.14877C6.81665 30.3635 5.55668 26.5846 5.55861 22.7011V22.2989C5.55405 18.7963 6.57955 15.3696 8.50752 12.4453H21.2819C21.7251 12.4483 22.1493 12.6254 22.4629 12.9385C22.7766 13.2516 22.9545 13.6756 22.9581 14.1187Z" fill="black"/>
<path d="M4.49156 12.4453H21.2794C21.7241 12.4449 22.1507 12.6211 22.4656 12.9352C22.7804 13.2493 22.9577 13.6755 22.9584 14.1202V30.8799C22.9577 31.3246 22.7804 31.7508 22.4656 32.0648C22.1507 32.3789 21.7241 32.5551 21.2794 32.5547H4.49156C4.27121 32.5554 4.05289 32.5127 3.84911 32.4288C3.64534 32.3449 3.46014 32.2217 3.30413 32.0661C3.14812 31.9104 3.02438 31.7255 2.94001 31.522C2.85565 31.3184 2.81231 31.1002 2.8125 30.8799V14.1202C2.81231 13.8998 2.85565 13.6816 2.94001 13.478C3.02438 13.2745 3.14812 13.0896 3.30413 12.934C3.46014 12.7783 3.64534 12.6551 3.84911 12.5712C4.05289 12.4874 4.27121 12.4446 4.49156 12.4453Z" fill="url(#paint0_linear_1272_6308)"/>
<path d="M13.0692 16.9143C14.1619 16.8424 15.2448 17.1592 16.1264 17.8087C16.4886 18.1311 16.7726 18.5318 16.9568 18.9804C17.141 19.429 17.2206 19.9137 17.1895 20.3976C17.2014 21.0793 17.0195 21.7503 16.665 22.3326C16.3053 22.9049 15.7883 23.3614 15.1758 23.6474C14.4756 23.9726 13.7103 24.1332 12.9384 24.1171H10.8108V28.0546H8.63672V16.9143H13.0692ZM10.8094 22.4156H12.6811C13.2745 22.4577 13.8629 22.2822 14.3363 21.922C14.5297 21.7375 14.6803 21.5128 14.7775 21.2637C14.8747 21.0147 14.9161 20.7473 14.8988 20.4806C14.8988 19.2534 14.1839 18.6393 12.7542 18.6384H10.8094V22.4156Z" fill="white"/>
<defs>
<linearGradient id="paint0_linear_1272_6308" x1="6.31969" y1="11.1291" x2="19.4512" y2="33.8709" gradientUnits="userSpaceOnUse">
<stop stop-color="#CA4C28"/>
<stop offset="0.5" stop-color="#C5401E"/>
<stop offset="1" stop-color="#B62F14"/>
</linearGradient>
</defs>
</svg>
