<svg width="28" height="28" viewBox="0 0 28 28" fill="none" xmlns="http://www.w3.org/2000/svg">
<rect width="27.9571" height="27.9571" fill="black"/>
<path d="M13.979 17.4734C15.9091 17.4734 17.4737 15.9088 17.4737 13.9787C17.4737 12.0486 15.9091 10.4841 13.979 10.4841C12.0489 10.4841 10.4844 12.0486 10.4844 13.9787C10.4844 15.9088 12.0489 17.4734 13.979 17.4734Z" stroke="white" stroke-opacity="0.5" stroke-width="1.14111" stroke-linecap="round" stroke-linejoin="round"/>
<path d="M21.8154 17.1558C21.6744 17.4752 21.6324 17.8295 21.6946 18.173C21.7569 18.5165 21.9207 18.8336 22.1649 19.0831L22.2283 19.1467C22.4253 19.3433 22.5815 19.5769 22.6881 19.8341C22.7947 20.0912 22.8496 20.3668 22.8496 20.6451C22.8496 20.9235 22.7947 21.1991 22.6881 21.4562C22.5815 21.7133 22.4253 21.9468 22.2283 22.1436C22.0317 22.3405 21.798 22.4967 21.5409 22.6033C21.2839 22.7098 21.0082 22.7647 20.73 22.7647C20.4516 22.7647 20.1759 22.7098 19.9189 22.6033C19.6618 22.4967 19.4282 22.3405 19.2315 22.1436L19.1679 22.08C18.9183 21.836 18.6014 21.6722 18.2578 21.6098C17.9143 21.5475 17.56 21.5896 17.2406 21.7305C16.9273 21.8648 16.6602 22.0877 16.4721 22.3718C16.284 22.6559 16.183 22.9888 16.1816 23.3297V23.5097C16.1816 24.0714 15.9585 24.6101 15.5613 25.0073C15.164 25.4045 14.6253 25.6276 14.0636 25.6276C13.5019 25.6276 12.9632 25.4045 12.566 25.0073C12.1688 24.6101 11.9456 24.0714 11.9456 23.5097V23.4144C11.9374 23.0639 11.824 22.7239 11.62 22.4388C11.416 22.1535 11.131 21.9364 10.8019 21.8153C10.4825 21.6744 10.1282 21.6323 9.7847 21.6945C9.44117 21.7569 9.12418 21.9206 8.87459 22.1648L8.81106 22.2283C8.61436 22.4253 8.38076 22.5815 8.12365 22.6881C7.86653 22.7947 7.59093 22.8495 7.31259 22.8495C7.03426 22.8495 6.75865 22.7947 6.50154 22.6881C6.24442 22.5815 6.01083 22.4253 5.81413 22.2283C5.61721 22.0317 5.46099 21.798 5.35441 21.5409C5.24783 21.2838 5.19296 21.0082 5.19296 20.7299C5.19296 20.4515 5.24783 20.1759 5.35441 19.9188C5.46099 19.6617 5.61721 19.4281 5.81413 19.2314L5.87767 19.1678C6.1218 18.9183 6.28557 18.6013 6.34787 18.2578C6.41016 17.9143 6.3681 17.5599 6.22713 17.2405C6.0929 16.9273 5.87 16.6602 5.58589 16.472C5.30177 16.2839 4.96884 16.1829 4.62807 16.1815H4.44804C3.88632 16.1815 3.34761 15.9584 2.95041 15.5612C2.55322 15.164 2.33008 14.6252 2.33008 14.0635C2.33008 13.5018 2.55322 12.9632 2.95041 12.5659C3.34761 12.1687 3.88632 11.9455 4.44804 11.9455H4.54335C4.89387 11.9374 5.23381 11.8239 5.51899 11.62C5.80417 11.416 6.02139 11.1309 6.14242 10.8019C6.28338 10.4825 6.32543 10.1282 6.26315 9.78464C6.20086 9.4411 6.03709 9.12412 5.79296 8.87453L5.72941 8.811C5.53249 8.6143 5.37628 8.3807 5.26969 8.12359C5.1631 7.86646 5.10824 7.59087 5.10824 7.31253C5.10824 7.0342 5.1631 6.75859 5.26969 6.50148C5.37628 6.24436 5.53249 6.01077 5.72941 5.81407C5.92611 5.61715 6.15971 5.46093 6.41682 5.35435C6.67393 5.24777 6.94954 5.1929 7.22788 5.1929C7.5062 5.1929 7.78182 5.24777 8.03893 5.35435C8.29604 5.46093 8.52963 5.61715 8.72634 5.81407L8.78987 5.8776C9.03946 6.12174 9.35644 6.28551 9.69998 6.34781C10.0435 6.4101 10.3978 6.36804 10.7172 6.22707H10.8019C11.1152 6.09284 11.3823 5.86994 11.5704 5.58583C11.7586 5.30171 11.8596 4.96878 11.8609 4.62801V4.44798C11.8609 3.88626 12.0841 3.34755 12.4813 2.95035C12.8784 2.55316 13.4172 2.33002 13.9789 2.33002C14.5406 2.33002 15.0794 2.55316 15.4765 2.95035C15.8737 3.34755 16.0969 3.88626 16.0969 4.44798V4.54329C16.0982 4.88405 16.1992 5.21699 16.3874 5.5011C16.5755 5.78522 16.8426 6.00812 17.1559 6.14236C17.4753 6.28332 17.8295 6.32537 18.173 6.26309C18.5166 6.2008 18.8336 6.03703 19.0832 5.79289L19.1468 5.72935C19.3434 5.53243 19.577 5.37622 19.8342 5.26963C20.0913 5.16304 20.3669 5.10818 20.6452 5.10818C20.9236 5.10818 21.1992 5.16304 21.4563 5.26963C21.7134 5.37622 21.9469 5.53243 22.1437 5.72935C22.3405 5.92605 22.4967 6.15965 22.6033 6.41676C22.7099 6.67387 22.7648 6.94948 22.7648 7.22782C22.7648 7.50614 22.7099 7.78175 22.6033 8.03887C22.4967 8.29598 22.3405 8.52957 22.1437 8.72628L22.0801 8.78981C21.836 9.0394 21.6722 9.35638 21.6099 9.69992C21.5476 10.0434 21.5896 10.3978 21.7306 10.7172V10.8019C21.8649 11.1151 22.0877 11.3822 22.3719 11.5704C22.656 11.7586 22.9889 11.8596 23.3297 11.8608H23.5097C24.0714 11.8608 24.6102 12.084 25.0074 12.4813C25.4045 12.8784 25.6277 13.4171 25.6277 13.9788C25.6277 14.5405 25.4045 15.0793 25.0074 15.4764C24.6102 15.8736 24.0714 16.0968 23.5097 16.0968H23.4144C23.0737 16.0981 22.7408 16.1991 22.4567 16.3873C22.1725 16.5755 21.9496 16.8426 21.8154 17.1558Z" stroke="white" stroke-opacity="0.5" stroke-width="1.14111" stroke-linecap="round" stroke-linejoin="round"/>
</svg>
