<svg width="45" height="45" viewBox="0 0 45 45" fill="none" xmlns="http://www.w3.org/2000/svg">
<path d="M40.5091 4.21876H13.6484C13.4281 4.2182 13.21 4.26113 13.0063 4.34506C12.8027 4.429 12.6177 4.5523 12.4618 4.7079C12.306 4.8635 12.1824 5.04833 12.0981 5.2518C12.0138 5.45527 11.9705 5.67337 11.9707 5.8936V13.3594L27.5365 17.9297L42.1882 13.3594V5.8936C42.1884 5.67325 42.1451 5.45503 42.0607 5.25147C41.9763 5.04791 41.8526 4.86302 41.6966 4.7074C41.5406 4.55179 41.3554 4.42851 41.1516 4.34466C40.9478 4.2608 40.7295 4.21802 40.5091 4.21876Z" fill="#41A5EE"/>
<path d="M42.1882 13.3594H11.9707V22.5L27.5365 25.2422L42.1882 22.5V13.3594Z" fill="#2B7CD3"/>
<path d="M11.9707 22.5V31.6406L26.621 33.4687L42.1882 31.6406V22.5H11.9707Z" fill="#185ABD"/>
<path d="M13.6484 40.7813H40.5077C40.7282 40.7822 40.9467 40.7395 41.1506 40.6558C41.3546 40.572 41.5399 40.4487 41.6961 40.2931C41.8522 40.1375 41.9761 39.9525 42.0606 39.7489C42.145 39.5452 42.1884 39.3269 42.1882 39.1064V31.6406H11.9707V39.1064C11.9705 39.3266 12.0138 39.5447 12.0981 39.7482C12.1824 39.9517 12.306 40.1365 12.4618 40.2921C12.6177 40.4477 12.8027 40.571 13.0063 40.6549C13.21 40.7389 13.4281 40.7818 13.6484 40.7813Z" fill="#103F91"/>
<path opacity="0.1" d="M23.111 11.5312H11.9707V34.3828H23.111C23.5549 34.3806 23.9801 34.2036 24.2944 33.8901C24.6087 33.5766 24.7868 33.1519 24.7901 32.708V13.2061C24.7868 12.7622 24.6087 12.3375 24.2944 12.024C23.9801 11.7105 23.5549 11.5335 23.111 11.5312Z" fill="black"/>
<path opacity="0.2" d="M22.1955 12.4453H11.9707V35.2969H22.1955C22.6395 35.2947 23.0646 35.1176 23.3789 34.8041C23.6932 34.4906 23.8713 34.0659 23.8746 33.622V14.1202C23.8713 13.6763 23.6932 13.2515 23.3789 12.938C23.0646 12.6246 22.6395 12.4475 22.1955 12.4453Z" fill="black"/>
<path opacity="0.2" d="M22.1955 12.4453H11.9707V33.4688H22.1955C22.6395 33.4665 23.0646 33.2895 23.3789 32.976C23.6932 32.6625 23.8713 32.2378 23.8746 31.7939V14.1202C23.8713 13.6763 23.6932 13.2515 23.3789 12.938C23.0646 12.6246 22.6395 12.4475 22.1955 12.4453Z" fill="black"/>
<path opacity="0.2" d="M21.2801 12.4453H11.9707V33.4688H21.2801C21.724 33.4665 22.1491 33.2895 22.4634 32.976C22.7777 32.6625 22.9558 32.2378 22.9591 31.7939V14.1202C22.9558 13.6763 22.7777 13.2515 22.4634 12.938C22.1491 12.6246 21.724 12.4475 21.2801 12.4453Z" fill="black"/>
<path d="M4.49156 12.4453H21.2794C21.7241 12.4449 22.1507 12.6211 22.4656 12.9352C22.7804 13.2493 22.9577 13.6755 22.9584 14.1202V30.8799C22.9577 31.3246 22.7804 31.7508 22.4656 32.0648C22.1507 32.3789 21.7241 32.5551 21.2794 32.5547H4.49156C4.27121 32.5554 4.05289 32.5127 3.84911 32.4288C3.64534 32.3449 3.46014 32.2217 3.30413 32.0661C3.14812 31.9104 3.02438 31.7255 2.94001 31.522C2.85565 31.3184 2.81231 31.1002 2.8125 30.8799V14.1202C2.81231 13.8998 2.85565 13.6816 2.94001 13.478C3.02438 13.2745 3.14812 13.0896 3.30413 12.934C3.46014 12.7783 3.64534 12.6551 3.84911 12.5712C4.05289 12.4874 4.27121 12.4446 4.49156 12.4453Z" fill="url(#paint0_linear_1272_6306)"/>
<path d="M9.70352 25.2958C9.73633 25.5546 9.75789 25.78 9.7682 25.9722H9.80758C9.82164 25.7894 9.85211 25.5691 9.89898 25.3113C9.9693 24.9246 9.98617 24.836 10.0241 24.6574L11.789 17.0538H14.0727L15.9009 24.5435C16.0064 25.0069 16.0825 25.4766 16.1287 25.9497H16.1596C16.1947 25.4892 16.2581 25.0313 16.3495 24.5786L17.8105 17.0439H19.8876L17.3226 27.9396H14.894L13.1545 20.7311C13.1038 20.523 13.0466 20.2521 12.9829 19.9183C12.9191 19.5846 12.8798 19.3408 12.8648 19.1871H12.8352C12.8155 19.3643 12.7762 19.6272 12.7171 19.976C12.658 20.3247 12.6112 20.5835 12.5765 20.7522L10.941 27.9438H8.47164L5.89258 17.0538H8.00195L9.59242 24.6729C9.63878 24.8787 9.67585 25.0866 9.70352 25.2958Z" fill="white"/>
<defs>
<linearGradient id="paint0_linear_1272_6306" x1="6.31969" y1="11.1291" x2="19.4512" y2="33.8709" gradientUnits="userSpaceOnUse">
<stop stop-color="#2368C4"/>
<stop offset="0.5" stop-color="#1A5DBE"/>
<stop offset="1" stop-color="#1146AC"/>
</linearGradient>
</defs>
</svg>
